<svg xmlns="http://www.w3.org/2000/svg" version="1.1" viewBox="-5.0 -10.0 110.0 135.0">
 <path d="m48.375 88.016h-27.281c-2.4258 0-4.3906-1.9648-4.3906-4.3906v-61.062c0-2.4258 1.9648-4.3984 4.3906-4.4062h9.8125v-3.125h-9.8125c-4.1523 0.007812-7.5156 3.3789-7.5156 7.5312v61.062c0.007813 4.1484 3.3672 7.5078 7.5156 7.5156h27.281c0.86328 0 1.5625-0.69922 1.5625-1.5625s-0.69922-1.5625-1.5625-1.5625z"/>
 <path d="m71.594 22.562v24.047c0 0.86328 0.69922 1.5625 1.5625 1.5625s1.5625-0.69922 1.5625-1.5625v-24.047c0-4.1523-3.3633-7.5234-7.5156-7.5312h-9.8125v3.125h9.8125c2.4258 0.007812 4.3906 1.9805 4.3906 4.4062z"/>
 <path d="m35.453 21.609h17.375c0.38281 0 0.74609-0.14844 1.0156-0.42188 0.27344-0.26953 0.42188-0.63281 0.42188-1.0156v-6.2344c-0.003906-0.37891-0.15625-0.74219-0.42578-1.0078-0.26953-0.26563-0.63281-0.41797-1.0117-0.41406h-17.375c-0.78516 0.003906-1.418 0.63672-1.4219 1.4219v6.2344c-0.003906 0.37891 0.14844 0.74219 0.41406 1.0117 0.26563 0.26953 0.62891 0.42188 1.0078 0.42578z"/>
 <path d="m44.141 6.25c1.0508-0.007812 2.0586 0.41016 2.7969 1.1562 0.54297 0.54297 0.91797 1.2344 1.0781 1.9844h3.1562c-0.17188-1.5898-0.89062-3.0703-2.0312-4.1875-1.3203-1.3359-3.1211-2.0859-5-2.0781-3.5859 0.003906-6.5977 2.7031-7 6.2656h3.1562c0.38281-1.8203 1.9844-3.1289 3.8438-3.1406z"/>
 <path d="m60.68 35.344h-19.523c-0.86328 0-1.5625 0.69922-1.5625 1.5625s0.69922 1.5625 1.5625 1.5625h19.531c0.86328 0 1.5625-0.69922 1.5625-1.5625s-0.69922-1.5625-1.5625-1.5625z"/>
 <path d="m37.648 30.871c-0.62109-0.60156-1.6094-0.58984-2.2109 0.027344l-5.0469 5.1953-1.5156-2.0391c-0.24609-0.33984-0.61719-0.56641-1.0273-0.62891-0.41406-0.066406-0.83594 0.039063-1.1719 0.28906-0.33594 0.25-0.55469 0.62109-0.61328 1.0352s0.050781 0.83594 0.30469 1.168l2.6094 3.5117c0.27344 0.36719 0.69531 0.59375 1.1523 0.625h0.10547c0.41797 0 0.82422-0.16797 1.1172-0.46875l6.3242-6.5c0.29297-0.29688 0.45312-0.69922 0.44531-1.1133-0.003906-0.41797-0.17578-0.8125-0.47266-1.1016z"/>
 <path d="m60.68 48.625h-19.523c-0.86328 0-1.5625 0.69922-1.5625 1.5625s0.69922 1.5625 1.5625 1.5625h19.531c0.86328 0 1.5625-0.69922 1.5625-1.5625s-0.69922-1.5625-1.5625-1.5625z"/>
 <path d="m37.648 44.152c-0.62109-0.60156-1.6094-0.58594-2.2109 0.03125l-5.0469 5.1914-1.5156-2.0469c-0.24609-0.33984-0.61719-0.56641-1.0273-0.62891-0.41406-0.0625-0.83594 0.039062-1.1719 0.28906-0.33594 0.25-0.55469 0.625-0.61328 1.0391-0.058594 0.41406 0.050781 0.83203 0.30469 1.1641l2.6094 3.5117c0.27344 0.36719 0.69531 0.59766 1.1523 0.625h0.10547c0.41797 0.003906 0.82422-0.16797 1.1172-0.46875l6.3242-6.5c0.60156-0.61719 0.58984-1.6055-0.027343-2.207z"/>
 <path d="m50.918 61.91h-9.7617c-0.86328 0-1.5625 0.69922-1.5625 1.5625 0 0.86328 0.69922 1.5625 1.5625 1.5625h9.7617c0.86328 0 1.5625-0.69922 1.5625-1.5625 0-0.86328-0.69922-1.5625-1.5625-1.5625z"/>
 <path d="m37.648 57.438c-0.62109-0.60156-1.6094-0.58984-2.2109 0.027344l-5.0469 5.1914-1.5156-2.0469c-0.51953-0.67969-1.4883-0.81641-2.1719-0.30469-0.6875 0.50781-0.83594 1.4766-0.33594 2.168l2.6094 3.5156c0.27344 0.36719 0.69531 0.59375 1.1523 0.625h0.10547c0.41797 0 0.82422-0.16797 1.1172-0.46875l6.3242-6.5c0.60156-0.61719 0.58984-1.6055-0.027343-2.207z"/>
 <path d="m47.875 78.316c0.86328 0 1.5625-0.69922 1.5625-1.5625 0-0.86328-0.69922-1.5625-1.5625-1.5625h-6.7188c-0.86328 0-1.5625 0.69922-1.5625 1.5625 0 0.86328 0.69922 1.5625 1.5625 1.5625z"/>
 <path d="m35.438 70.75-5.0469 5.1875-1.5156-2.043c-0.51953-0.67969-1.4883-0.8125-2.1719-0.30469-0.6875 0.51172-0.83594 1.4766-0.33594 2.168l2.6094 3.5156c0.27344 0.36719 0.69531 0.59375 1.1523 0.625h0.10547c0.41797 0 0.82422-0.16797 1.1172-0.46875l6.3242-6.5c0.58984-0.62109 0.57422-1.6016-0.039062-2.1953-0.61719-0.59766-1.5938-0.58984-2.1992 0.015625z"/>
 <path d="m80.422 68.016c-2.8906-1.5781-7.8281 1.1406-9.4844 2.3125-1.3867 0.92578-3.1992 0.92188-4.5781-0.015625-2.1797-1.5547-4.7266-2.5156-7.3906-2.7812-0.72656-0.019531-1.4492 0.14844-2.0938 0.48438-2.0938 1.1406-3.0781 4.5938-2.8438 10 0.28125 6.3594 2.0469 10.875 5.2812 13.406 2.6055 1.8906 5.8516 2.6758 9.0312 2.1875 0.19922-0.046875 0.41016-0.046875 0.60938 0 0.60938 0.097656 1.2266 0.14453 1.8438 0.14062 2.5898 0.042969 5.1172-0.77344 7.1875-2.3281 3.2188-2.5312 5-7.0469 5.2812-13.406 0.23438-5.4062-0.75-8.8594-2.8438-10zm-21.094 4.9688c-0.59375 0.32812-1.5156 1.8594-0.76562 5.3594 0.082031 0.40625 0 0.82812-0.22656 1.1758-0.23047 0.34375-0.58594 0.58594-0.99219 0.66797-0.10156 0.03125-0.20703 0.046875-0.3125 0.046875-0.74219 0-1.3828-0.52344-1.5312-1.25-1.5156-7.1406 2.4531-8.8125 2.6094-8.875 0.80859-0.32031 1.7227 0.070313 2.0469 0.875 0.30469 0.78125-0.058594 1.6641-0.82812 2z"/>
 <path d="m70.281 61.375c1.9062-0.15234 3.7031-0.95312 5.0938-2.2656 1.4492-1.5391 2.4062-3.4766 2.75-5.5625-2.0859 0.32812-4.0273 1.2812-5.5625 2.7344-1.3164 1.3906-2.1211 3.1875-2.2812 5.0938z"/>
<text x="0.0" y="117.5" font-size="5.0" font-weight="bold" font-family="Arbeit Regular, Helvetica, Arial-Unicode, Arial, Sans-serif" fill="#000000">Created by Muhammad Hilmi Fajri</text><text x="0.0" y="122.5" font-size="5.0" font-weight="bold" font-family="Arbeit Regular, Helvetica, Arial-Unicode, Arial, Sans-serif" fill="#000000">from Noun Project</text></svg>