<svg xmlns="http://www.w3.org/2000/svg" version="1.1" viewBox="-5.0 -10.0 110.0 135.0">
 <path d="m80.773 80.176v-1.8867h-25.785v1.8867h25.785zm-25.426-44.062c-0.55078 0-1-0.44922-1-1s0.44922-1 1-1h3.5195l3.0312-6.1953c0.24219-0.49219 0.83594-0.69922 1.332-0.45703 0.29688 0.14453 0.48828 0.42187 0.54297 0.72266l2.1172 11.988 2.8945-14.121c0.10938-0.53906 0.63672-0.88672 1.1758-0.77734 0.29687 0.058593 0.53906 0.25 0.67187 0.49609l4.6016 8.3398h12.309c0.55078 0 1 0.44922 1 1s-0.44922 1-1 1h-12.898c-0.35156-0.003906-0.69531-0.1875-0.875-0.51953l-3.5781-6.4883-3.3906 16.539c-0.058593 0.41797-0.37891 0.76953-0.81641 0.84375-0.54297 0.09375-1.0625-0.26953-1.1562-0.8125l-2.4883-14.133-1.918 3.918c-0.14062 0.38281-0.50781 0.65625-0.9375 0.65625h-4.1406zm9.0352-18.414c1.5078 0 2.9766 0.21484 4.3789 0.61719v-2.4023h-13.715l-0.71875 2.2188c-0.10547 0.44141-0.5 0.76953-0.97266 0.76953h-27.148c-0.42188-0.003906-0.8125-0.27344-0.94922-0.69531l-0.74219-2.293h-13.715v68.168h32.539v-0.35547h-2.7812c-0.55078 0-1-0.44922-1-1v-6.9922c0-0.55078 0.44922-1 1-1h2.7812v-5.2266h-13.957c-0.55078 0-1-0.44922-1-1 0-0.55078 0.44922-1 1-1h13.957v-0.19531c0-0.55078 0.44922-1 1-1h9.6445c0.55078 0 1 0.44922 1 1v0.19531h8.2305c0.55078 0 1 0.44922 1 1 0 0.55078-0.44922 1-1 1h-8.2305v6.7773h13.773v-14.367l-1.4258-1.4023c-1.6523-1.625-3.2734-3.2188-4.8281-4.7852h-33.125c-0.55078 0-1-0.44922-1-1s0.44922-1 1-1h31.164c-0.46875-0.48438-0.92969-0.96484-1.3789-1.4453h-29.785c-0.55078 0-1-0.44922-1-1 0-0.55078 0.44922-1 1-1h27.945c-2.5586-2.8555-4.7344-5.625-6.2891-8.332h-21.656c-0.55078 0-1-0.44922-1-1s0.44922-1 1-1h20.617c-0.22266-0.48438-0.42188-0.96484-0.59766-1.4453h-20.02c-0.55078 0-1-0.44922-1-1 0-0.55078 0.44922-1 1-1h19.418c-0.22266-0.96484-0.33984-1.9258-0.33984-2.8789 0-1.4805 0.20312-2.9102 0.57812-4.2695h-32.699c-0.55078 0-1-0.44922-1-1s0.44922-1 1-1h33.402c0.80469-1.875 1.957-3.5664 3.3789-4.9883 2.8789-2.8789 6.8633-4.6641 11.258-4.6641zm6.3789 1.3359c0.53906 0.23438 1.0625 0.5 1.5703 0.79297 0.46484-0.26562 0.94141-0.51172 1.4375-0.73438v-8.0391h-17.148l-0.92578 2.8555h14.066c0.55078 0 1 0.44922 1 1zm5.0078-0.67969 0.097657-0.027344c1.4141-0.40625 2.8945-0.625 4.4141-0.625 4.3984 0 8.3789 1.7852 11.258 4.6641 2.8789 2.8789 4.6641 6.8633 4.6641 11.258 0 8.3281-8.8555 17.035-18.863 26.883l-1.5703 1.543v14.238h5.0039v-8.9766c0-0.55078 0.44922-1 1-1h9.6445c0.55078 0 1 0.44922 1 1v7.4219h2.7812c0.55078 0 1 0.44922 1 1v6.9922c0 0.55078-0.44922 1-1 1h-2.7812v6.2109c0 0.55078-0.44922 1-1 1h-9.6445c-0.55078 0-1-0.44922-1-1v-7.7656h-5.0039v7.7656c0 0.55078-0.44922 1-1 1h-69.973c-0.55078 0-1-0.44922-1-1v-79.883c0-0.55078 0.44922-1 1-1h69.973c0.55078 0 1 0.44922 1 1zm-2 45.68-0.73047 0.72656c-0.39062 0.39062-1.0234 0.39062-1.4141 0l-0.86328-0.85938v12.387h3.0078zm-5.5195-43.793c-1.2148-0.34766-2.5117-0.53906-3.8672-0.53906-3.8438 0-7.3242 1.5586-9.8438 4.0781-2.5195 2.5195-4.0781 6-4.0781 9.8438 0 8.7891 13.094 20.375 18.273 25.473 1.1992 1.1836 2.3945 2.3633 3.5977 3.5469 1.2031-1.1875 2.4062-2.3711 3.6094-3.5586 9.6914-9.5312 18.262-17.965 18.262-25.461 0-3.8438-1.5586-7.3242-4.0781-9.8438s-6-4.0781-9.8438-4.0781c-1.3555 0-2.6523 0.1875-3.8672 0.53906-1.2305 0.35547-2.4648 0.91016-3.543 1.5938-0.31641 0.20312-0.73047 0.21875-1.0703 0.003906-1.0859-0.68359-2.3125-1.2383-3.5508-1.5977zm-39.09 56.605c-0.55078 0-1-0.44922-1-1 0-0.55078 0.44922-1 1-1h2.3945c0.55078 0 1 0.44922 1 1 0 0.55078-0.44922 1-1 1zm-12.816 0.003906c-0.55078 0-1-0.44922-1-1 0-0.55078 0.44922-1 1-1h8.1797c0.55078 0 1 0.44922 1 1 0 0.55078-0.44922 1-1 1zm13.039-10.785c-0.55078 0-1-0.44922-1-1 0-0.55078 0.44922-1 1-1h33.836c0.55078 0 1 0.44922 1 1 0 0.55078-0.44922 1-1 1zm12.605-5.4453c0.55078 0 1 0.44922 1 1 0 0.55078-0.44922 1-1 1h-12.605c-0.55078 0-1-0.44922-1-1 0-0.55078 0.44922-1 1-1zm-25.645 0h6.8867c0.55078 0 1 0.44922 1 1v6.8867c0 0.55078-0.44922 1-1 1h-6.8867c-0.55078 0-1-0.44922-1-1v-6.8867c0-0.55078 0.44922-1 1-1zm5.8867 2h-4.8867v4.8867h4.8867zm19.762-15.781c0.55078 0 1 0.44922 1 1 0 0.55078-0.44922 1-1 1h-12.605c-0.55078 0-1-0.44922-1-1 0-0.55078 0.44922-1 1-1zm-25.645 0h6.8867c0.55078 0 1 0.44922 1 1v6.8867c0 0.55078-0.44922 1-1 1h-6.8867c-0.55078 0-1-0.44922-1-1v-6.8867c0-0.55078 0.44922-1 1-1zm5.8867 2h-4.8867v4.8867h4.8867zm19.762-15.781c0.55078 0 1 0.44922 1 1 0 0.55078-0.44922 1-1 1h-12.605c-0.55078 0-1-0.44922-1-1 0-0.55078 0.44922-1 1-1zm-25.645 0h6.8867c0.55078 0 1 0.44922 1 1v6.8867c0 0.55078-0.44922 1-1 1h-6.8867c-0.55078 0-1-0.44922-1-1v-6.8867c0-0.55078 0.44922-1 1-1zm5.8867 2h-4.8867v4.8867h4.8867zm17.199-11.91c0.55078 0 1 0.44922 1 1 0 0.55078-0.44922 1-1 1h-23.082c-0.55078 0-1-0.44922-1-1 0-0.55078 0.44922-1 1-1zm15.562 59.027v1.9062h13.773v-1.9062zm15.773 0v2.9062c0 0.55078-0.44922 1-1 1h-14.773v2.8555h18.781v-6.7656h-3.0078zm23.438-5.4414h-1.7812v4.9922h1.7812zm-3.7812-8.4219h-7.6445v20.629h7.6445v-20.629zm-47.078 13.418v-4.9922h-1.7812v4.9922zm2 7.2148h7.6445v-20.629h-7.6445v20.629zm-2-2.8555h-33.543c-0.55078 0-1-0.44922-1-1v-70.168c0-0.55078 0.44922-1 1-1h14.066l-0.92578-2.8555h-17.148v77.883h37.547v-2.8555zm11.18-75.027h-29.484c0.62891 1.9492 1.2617 3.8984 1.8906 5.8438h25.699c0.62891-1.9492 1.2617-3.8945 1.8906-5.8438z"/>
<text x="0.0" y="117.5" font-size="5.0" font-weight="bold" font-family="Arbeit Regular, Helvetica, Arial-Unicode, Arial, Sans-serif" fill="#000000">Created by Siti Masniyah</text><text x="0.0" y="122.5" font-size="5.0" font-weight="bold" font-family="Arbeit Regular, Helvetica, Arial-Unicode, Arial, Sans-serif" fill="#000000">from Noun Project</text></svg>