<svg xmlns="http://www.w3.org/2000/svg" xmlns:xlink="http://www.w3.org/1999/xlink" xml:space="preserve" version="1.1" style="shape-rendering:geometricPrecision;text-rendering:geometricPrecision;image-rendering:optimizeQuality;" viewBox="0 0 333.33 416.66249999999997" x="0px" y="0px" fill-rule="evenodd" clip-rule="evenodd"><defs><style type="text/css">
   
    .fil0 {fill:black}
   
  </style></defs><g><path class="fil0" d="M184.41 16.86l24.46 23.52c4.83,4.65 10.55,7.02 17.25,7.15l33.93 0.66c13.75,0.27 24.83,11.35 25.1,25.1l0.66 33.93c0.13,6.7 2.5,12.42 7.15,17.25l23.52 24.46c9.53,9.91 9.53,25.58 0,35.5l-23.52 24.46c-4.65,4.83 -7.02,10.55 -7.15,17.25l-0.66 33.93c-0.27,13.75 -11.35,24.83 -25.1,25.1l-33.93 0.66c-6.7,0.13 -12.42,2.5 -17.25,7.15l-24.46 23.52c-9.91,9.53 -25.58,9.53 -35.5,0l-24.46 -23.52c-4.83,-4.65 -10.55,-7.02 -17.25,-7.15l-33.93 -0.66c-13.75,-0.27 -24.83,-11.35 -25.1,-25.1l-0.66 -33.93c-0.13,-6.7 -2.5,-12.42 -7.15,-17.25l-23.52 -24.46c-9.53,-9.91 -9.53,-25.58 0,-35.5l23.52 -24.46c4.65,-4.83 7.02,-10.55 7.15,-17.25l0.66 -33.93c0.27,-13.75 11.35,-24.83 25.1,-25.1l33.93 -0.66c6.7,-0.13 12.42,-2.5 17.25,-7.15l24.46 -23.52c9.91,-9.53 25.58,-9.53 35.5,0zm-1.88 115.18l57.03 0c6.17,0 11.21,5.04 11.21,11.21l0 0c0,6.17 -5.05,11.21 -11.21,11.21l-4.25 0c6.17,0 11.21,5.04 11.21,11.21l0 0c0,6.17 -5.05,11.21 -11.21,11.21l-4.26 0c6.17,0 11.21,5.04 11.21,11.21l0 0c0,6.17 -5.04,11.21 -11.21,11.21l-4.25 0c6.17,0 11.21,5.04 11.21,11.21l0 0c0,6.17 -5.04,11.21 -11.21,11.21l-74.04 0 -27.15 -4.78 0 -85.48 32.18 -26.12 0 -33.25 5.41 0c10.65,0 19.33,8.69 19.33,19.33l0 40.6zm-71.46 4.24l-21.12 0 0 100.54 21.12 0 0 -100.54z"/></g><text x="0" y="348.33" fill="#000000" font-size="5px" font-weight="bold" font-family="'Helvetica Neue', Helvetica, Arial-Unicode, Arial, Sans-serif">Created by YANDI RS</text><text x="0" y="353.33" fill="#000000" font-size="5px" font-weight="bold" font-family="'Helvetica Neue', Helvetica, Arial-Unicode, Arial, Sans-serif">from the Noun Project</text></svg>