<svg xmlns="http://www.w3.org/2000/svg" version="1.1" viewBox="-5.0 -10.0 110.0 135.0">
 <path d="m86.41 13.348c-0.054687-0.097656-5.9375 0.015625-6.2188-0.027344 0.30078-3.7461-2.6016-7.0742-6.4062-7.0547-4.1328-0.41016-7.625 2.8867-7.2891 7.0547h-8.3086c0.48438-9.4414-14.172-9.4375-13.695 0h-8.3086c0.34375-4.1641-3.168-7.4688-7.2891-7.0547-3.8008-0.019531-6.707 3.3086-6.4062 7.0547h-5.4688c-4.2031-0.042968-7.7656 3.1953-7.4023 7.0508-0.007813 5.8047 0.003906 62.285 0 66.305 0 3.8867 3.3203 7.0508 7.4023 7.0508h68.641c4.082 0 7.4023-3.1641 7.4023-7.0508v-66.305c0.27344-3.6094-2.6094-6.6758-6.6523-7.0234zm-72.188 21.469h74.238v29.133h-12.25c-3.0078 0-5.457 2.4492-5.457 5.457v10.121l-53.734 0.003906c-1.6484 0-2.8008-0.97266-2.8008-1.8477v-42.863zm61.133 34.59c0-0.46484 0.39062-0.85547 0.85547-0.85547h11.422c-0.0625 0.058594-0.11719 0.12109-0.1875 0.17188l-12.086 8.6367v-7.957zm-4.2578-56.734c0-0.99219 0.80859-1.8008 1.8008-1.8008h0.88672c0.99219 0 1.8008 0.80859 1.8008 1.8008v5.9102c0 0.99219-0.80859 1.8008-1.8008 1.8008h-0.88672c-0.99219 0-1.8008-0.80859-1.8008-1.8008zm-22 0c0-0.99219 0.80859-1.8008 1.8008-1.8008h0.88672c0.99219 0 1.8008 0.80859 1.8008 1.8008v5.9102c0 0.99219-0.80859 1.8008-1.8008 1.8008h-0.88672c-0.99219 0-1.8008-0.80859-1.8008-1.8008zm-22.004 0c0-0.99219 0.80859-1.8008 1.8008-1.8008h0.88672c0.99219 0 1.8008 0.80859 1.8008 1.8008v5.9102c0 0.99219-0.80859 1.8008-1.8008 1.8008h-0.88672c-0.99219 0-1.8008-0.80859-1.8008-1.8008zm-4.6016 5.2539c-0.52344 9.4766 14.242 9.3828 13.695 0h8.3086c-0.30469 3.7461 2.6016 7.082 6.4062 7.0625 4.1289 0.41016 7.6328-2.8906 7.2891-7.0625h8.3086c-0.48828 9.4492 14.18 9.4531 13.695 0h5.4688c1.4609-0.046875 2.8242 1.1211 2.8008 2.4492v9.8398h-74.242v-9.8398c-0.019531-1.3242 1.3281-2.4961 2.8008-2.4492zm63.168 71.203h-68.641c-1.543 0-2.8008-1.0977-2.8008-2.4492v-3.0352c0.86328 0.30859 1.8086 0.48438 2.8008 0.48438h54.523c1.4727 0 2.8906-0.45312 4.0898-1.3125l12.824-9.1641v13.023c0 1.3516-1.2539 2.4492-2.8008 2.4492z"/>
 <path d="m33.582 64.082h6.7734v6.7695c0 1.6133 1.3125 2.9219 2.9219 2.9219h8.4531c1.6094 0 2.9219-1.3125 2.9219-2.9219v-6.7695h6.7734c1.6094 0 2.9219-1.3125 2.9219-2.9219v-8.4531c0-1.6094-1.3125-2.9219-2.9219-2.9219h-6.7734v-6.7695c0-1.6094-1.3125-2.9219-2.9219-2.9219h-8.4531c-1.6094 0-2.9219 1.3125-2.9219 2.9219v6.7695h-6.7734c-1.6094 0-2.9219 1.3125-2.9219 2.9219v8.4531c0 1.6094 1.3125 2.9219 2.9219 2.9219zm1.6836-9.6914h6.7695c1.6133 0 2.9219-1.3125 2.9219-2.9219v-6.7695h5.0898v6.7695c0 1.6094 1.3125 2.9219 2.9219 2.9219h6.7734v5.0898h-6.7734c-1.6094 0-2.9219 1.3125-2.9219 2.9219v6.7695h-5.0898v-6.7695c0-1.6133-1.3125-2.9219-2.9219-2.9219h-6.7695z"/>
<text x="0.0" y="117.5" font-size="5.0" font-weight="bold" font-family="Arbeit Regular, Helvetica, Arial-Unicode, Arial, Sans-serif" fill="#000000">Created by Sentya Irma</text><text x="0.0" y="122.5" font-size="5.0" font-weight="bold" font-family="Arbeit Regular, Helvetica, Arial-Unicode, Arial, Sans-serif" fill="#000000">from Noun Project</text></svg>